# xmcd
#
# Track frame offsets: 
#        150
#        13173
#        27298
#        40806
#        54233
#        67889
#        80132
#        94454
#        109414
#        122804
#        134191
#        150010
#        164464
#        180821
#        196298
#        210287
#        225322
#        238483
#        252152
#        268149
#        280744
#        293465
#        304647
#        319340
#
# Disc length: 4450 seconds
#
# Revision: 0
# Processed by: cddbd v1.5.2PL0 Copyright (c) Steve Scherf et al.
# Submitted via: ExactAudioCopy v0.99pb4
#
DISCID=4d116018
DTITLE=Various Artist - Mississippi Blues - Delta guitar Pioneers
DYEAR=2007
DGENRE=Blues
TTITLE0=Stone Pony Blues - Charley Patton
TTITLE1=Avalon Blues - Mississippi John Hurt
TTITLE2=Walking Blues - Son House
TTITLE3=Future Blues - Willie Brown
TTITLE4=Devil Got my Woman - Skip James
TTITLE5=Parchman Farm Blues - Bukka White
TTITLE6=Twelve Pound Daddy - Pearl Dickson
TTITLE7=Little Leg Woman - Big Joe Williams
TTITLE8=Look here Mama Blues - Uncle Bud Walker
TTITLE9=The Jail House Blues - Sam Collins
TTITLE10=Tell me Baby - King Solomon Hill
TTITLE11=Last Kind Words Blues - Geechie Wiley
TTITLE12=Canned Heat Blues - Tommy Johnson
TTITLE13=Troubled Hearted Blues - Ishmon Bracey
TTITLE14=The Ins and Out of my Girl - Bo Carter
TTITLE15=You Scolded me and Drove me from your Door - Caldwell Bracey
TTITLE16=Overtime Blues - Walter Vinson
TTITLE17=Last Time Blues -Charlie McCoy
TTITLE18=Never Drive a Stanger from your Door - Willie Harris
TTITLE19=Happy Home Blues - Mississippi Matilda and Sonny Boy Nelson
TTITLE20=Dirty Mistreater - Willie "Poor Boy" Lofton
TTITLE21=Mississippi Moan - The Mississippi Moaner
TTITLE22=Dough Roller Blues - Garfield Akers
TTITLE23=Traveling Mama Blues - Mississippi Joe Calicott
EXTD=
EXTT0=
EXTT1=
EXTT2=
EXTT3=
EXTT4=
EXTT5=
EXTT6=
EXTT7=
EXTT8=
EXTT9=
EXTT10=
EXTT11=
EXTT12=
EXTT13=
EXTT14=
EXTT15=
EXTT16=
EXTT17=
EXTT18=
EXTT19=
EXTT20=
EXTT21=
EXTT22=
EXTT23=
PLAYORDER=
